<?xml version="1.0" encoding="iso-8859-1"?>
<!-- Generator: Adobe Illustrator 19.0.0, SVG Export Plug-In . SVG Version: 6.00 Build 0)  -->
<svg version="1.1" id="Layer_1" xmlns="http://www.w3.org/2000/svg" xmlns:xlink="http://www.w3.org/1999/xlink" x="0px" y="0px"
	 viewBox="0 0 489.128 489.128" style="enable-background:new 0 0 489.128 489.128;" xml:space="preserve">
<g>
	<g id="XMLID_44_">
		<g>
			<rect x="409.27" y="389.306" style="fill:#9AA1A6;" width="29.947" height="89.84"/>
			<rect x="49.911" y="389.306" style="fill:#9AA1A6;" width="29.947" height="89.84"/>
			<path style="fill:#9AA1A6;" d="M29.947,389.306c-10.98,0-19.964-8.984-19.964-19.964v-39.929h469.162v39.929
				c0,10.98-8.984,19.964-19.964,19.964H29.947z"/>
			<polygon style="fill:#E7ECED;" points="479.145,294.475 479.145,329.413 9.982,329.413 9.982,294.475 19.965,294.475 
				149.733,294.475 179.68,294.475 309.448,294.475 339.394,294.475 469.163,294.475 			"/>
			<polygon style="fill:#E7ECED;" points="414.261,114.796 434.225,144.743 424.243,169.698 394.296,169.698 394.296,144.743 
				379.323,129.769 364.35,144.743 364.35,169.698 334.403,169.698 324.421,144.743 344.385,114.796 359.359,89.841 399.287,89.841 
							"/>
			<polygon style="fill:#E7ECED;" points="214.617,114.796 234.581,144.743 224.599,169.698 194.653,169.698 194.653,144.743 
				179.68,129.769 164.706,144.743 164.706,169.698 134.76,169.698 124.777,144.743 144.742,114.796 159.715,89.841 199.644,89.841 
							"/>
			<polygon style="fill:#AFB6BB;" points="344.385,59.894 379.323,59.894 414.261,59.894 414.261,89.841 399.287,89.841 
				359.359,89.841 344.385,89.841 			"/>
			<polygon style="fill:#AFB6BB;" points="144.742,59.894 179.68,59.894 214.617,59.894 214.617,89.841 199.644,89.841 
				159.715,89.841 144.742,89.841 			"/>
			<rect x="384.314" y="204.636" style="fill:#E7ECED;" width="39.929" height="49.911"/>
			<rect x="224.599" y="204.636" style="fill:#E7ECED;" width="39.929" height="49.911"/>
			<rect x="64.884" y="204.636" style="fill:#E7ECED;" width="39.929" height="49.911"/>
			<polygon style="fill:#A67C52;" points="469.163,204.636 469.163,294.475 339.394,294.475 339.394,204.636 384.314,204.636 
				384.314,254.547 424.243,254.547 424.243,204.636 			"/>
			<polygon style="fill:#A67C52;" points="309.448,204.636 309.448,294.475 179.68,294.475 179.68,204.636 224.599,204.636 
				224.599,254.547 264.528,254.547 264.528,204.636 			"/>
			<polygon style="fill:#A67C52;" points="149.733,204.636 149.733,294.475 19.965,294.475 19.965,204.636 64.884,204.636 
				64.884,254.547 104.813,254.547 104.813,204.636 			"/>
		</g>
		<g>
			<path d="M0,2.483v15h172.18v34.91h-34.938v44.948h9.226l-8.066,13.443l-22.054,33.08l13.333,33.334h42.524v-29.35l7.474-7.473
				l7.473,7.473v29.35h42.525l13.332-33.334l-22.053-33.08l-8.066-13.443h9.227V52.394H187.18v-34.91h184.644v34.91h-34.938v44.947
				h9.226l-8.066,13.443l-22.054,33.08l13.333,33.334h42.525v-29.35l7.474-7.473l7.473,7.473v29.35h42.525l13.332-33.334
				l-22.054-33.08l-8.066-13.443h9.228V52.394h-34.938v-34.91h102.304v-15H0V2.483z M208.187,118.654l17.966,26.966l-6.631,16.578
				h-17.369v-20.563l-22.473-22.473l-22.474,22.473v20.563h-17.368l-6.632-16.578l17.776-26.664l12.978-21.615h31.438
				L208.187,118.654z M207.117,82.341h-54.875V67.394h54.875V82.341z M407.83,118.654l17.966,26.966l-6.631,16.578h-17.369v-20.563
				l-22.473-22.473l-22.474,22.473v20.563h-17.368l-6.632-16.578l17.776-26.664l12.978-21.615h31.438L407.83,118.654z
				 M406.761,82.341h-54.875V67.394h54.875V82.341z"/>
			<rect x="274.51" y="351.859" width="19.965" height="15"/>
			<rect x="354.367" y="351.859" width="19.965" height="15"/>
			<rect x="434.225" y="351.859" width="19.965" height="15"/>
			<rect x="194.652" y="351.859" width="19.965" height="15"/>
			<rect x="114.795" y="351.859" width="19.965" height="15"/>
			<rect x="34.938" y="351.859" width="19.965" height="15"/>
			<path d="M476.662,197.136H331.895v89.84h-14.947v-89.84H172.18v89.84h-14.947v-89.84H12.465v89.84H2.483v82.366
				c0,15.143,12.32,27.464,27.464,27.464h12.465v89.84h44.946v-89.84H401.77v89.84h44.946v-89.84h12.465
				c15.144,0,27.464-12.32,27.464-27.464v-82.366h-9.982v-89.84H476.662z M391.815,212.136h24.929v34.911h-24.929V212.136z
				 M346.895,212.136h29.92v49.911h54.929v-49.911h29.919v74.84H346.895V212.136z M232.1,212.136h24.929v34.911H232.1V212.136z
				 M187.18,212.136h29.92v49.911h54.929v-49.911h29.919v74.84H187.18V212.136z M469.162,301.976h2.482v19.938H17.483v-19.938h2.482
				H469.162z M72.385,212.136h24.929v34.911H72.385V212.136z M27.465,212.136h29.92v49.911h54.929v-49.911h29.919v74.84H27.465
				V212.136z M72.357,471.646H57.411v-74.84h14.946V471.646z M431.716,471.646H416.77v-74.84h14.946V471.646z M459.181,381.806
				H29.946c-6.873,0-12.464-5.591-12.464-12.464v-32.429h59.866v32.429h15v-32.429h64.857v32.429h15v-32.429h64.857v32.429h15
				v-32.429h64.857v32.429h15v-32.429h64.858v32.429h15v-32.429h59.866v32.429C471.645,376.215,466.054,381.806,459.181,381.806z"/>
		</g>
	</g>
</g>
<g>
</g>
<g>
</g>
<g>
</g>
<g>
</g>
<g>
</g>
<g>
</g>
<g>
</g>
<g>
</g>
<g>
</g>
<g>
</g>
<g>
</g>
<g>
</g>
<g>
</g>
<g>
</g>
<g>
</g>
</svg>
