<?xml version="1.0" encoding="utf-8"?>
<!-- Generator: Adobe Illustrator 21.0.2, SVG Export Plug-In . SVG Version: 6.00 Build 0)  -->
<svg version="1.1" id="Layer_1" xmlns="http://www.w3.org/2000/svg" xmlns:xlink="http://www.w3.org/1999/xlink" x="0px" y="0px"
	 viewBox="0 0 485 485" style="enable-background:new 0 0 485 485;" xml:space="preserve">
<style type="text/css">
	.st0{fill:#F4661E;}
	.st1{fill:#A3A9AE;}
	.st2{fill:#81878B;}
	.st3{fill:#AFB6BB;}
	.st4{fill:#31C0D8;}
</style>
<g>
	<g id="XMLID_39_">
		<g>
			<rect x="337.5" y="112.5" class="st0" width="70" height="40"/>
			<rect x="187.5" y="112.5" class="st0" width="70" height="40"/>
			<rect x="37.5" y="52.5" class="st0" width="90" height="60"/>
			<rect x="337.5" y="152.5" class="st1" width="70" height="70"/>
			<rect x="187.5" y="152.5" class="st1" width="70" height="70"/>
			<polygon class="st2" points="37.5,222.5 37.5,112.5 127.5,112.5 127.5,222.5 187.5,222.5 257.5,222.5 337.5,222.5 407.5,222.5 
				477.5,222.5 477.5,262.5 7.5,262.5 7.5,222.5 			"/>
			<path class="st3" d="M7.5,262.5v170h470v-170H7.5z M42.5,297.5h50h50h50h50h50h50h50h50v60h-50h-50h-50h-50h-50h-50h-50h-50
				V297.5z"/>
			<rect x="42.5" y="297.5" class="st4" width="50" height="60"/>
			<rect x="92.5" y="297.5" class="st4" width="50" height="60"/>
			<rect x="142.5" y="297.5" class="st4" width="50" height="60"/>
			<rect x="192.5" y="297.5" class="st4" width="50" height="60"/>
			<rect x="242.5" y="297.5" class="st4" width="50" height="60"/>
			<rect x="292.5" y="297.5" class="st4" width="50" height="60"/>
			<rect x="342.5" y="297.5" class="st4" width="50" height="60"/>
			<rect x="392.5" y="297.5" class="st4" width="50" height="60"/>
		</g>
		<g>
			<path d="M415,215v-95h22.5v-15h-130v15H330v95h-65v-95h22.5v-15h-130v15H180v95h-45V60h22.5V45H7.5v15H30v155H0v225h485V215H415z
				 M345,160h55v55h-55V160z M400,120v25h-55v-25H400z M195,160h55v55h-55V160z M250,120v25h-55v-25H250z M120,60v45H45V60H120z
				 M87.5,230v-15H45v-95h75v110h350v25H15v-25H87.5z M15,425V270h455v155H15z"/>
			<path d="M35,365h415v-75H35V365z M335,350h-35v-45h35V350z M350,305h35v45h-35V305z M285,350h-35v-45h35V350z M235,350h-35v-45
				h35V350z M185,350h-35v-45h35V350z M135,350h-35v-45h35V350z M435,350h-35v-45h35V350z M50,305h35v45H50V305z"/>
			<rect x="27.5" y="385" width="420" height="15"/>
		</g>
	</g>
</g>
</svg>
