<?xml version="1.0" encoding="iso-8859-1"?>
<!-- Generator: Adobe Illustrator 19.0.0, SVG Export Plug-In . SVG Version: 6.00 Build 0)  -->
<svg version="1.1" id="Layer_1" xmlns="http://www.w3.org/2000/svg" xmlns:xlink="http://www.w3.org/1999/xlink" x="0px" y="0px"
	 viewBox="0 0 484.162 484.162" style="enable-background:new 0 0 484.162 484.162;" xml:space="preserve">
<g>
	<g id="XMLID_29_">
		<g>
			<rect x="366.859" y="220.419" style="fill:#E7ECED;" width="49.911" height="34.139"/>
			<polygon style="fill:#8B9296;" points="431.743,184.684 431.743,220.419 416.77,220.419 366.859,220.419 351.885,220.419 
				351.885,184.684 			"/>
			<path style="fill:#8B9296;" d="M386.823,149.745c-13.576,0-25.954-5.39-34.938-14.175c-3.194-3.194-5.989-6.788-8.285-10.781
				c-4.292-7.287-6.688-15.872-6.688-24.955s2.396-17.668,6.688-24.955c8.685-14.973,24.756-24.956,43.223-24.956
				c27.551,0,49.911,22.36,49.911,49.911c0,8.784-2.296,17.069-6.289,24.157C421.96,139.363,405.59,149.745,386.823,149.745z"/>
			<path style="fill:#8B9296;" d="M187.179,149.745c-27.551,0-49.911-22.36-49.911-49.911c0-11.28,3.693-21.661,9.982-29.947
				c9.084-12.078,23.658-19.964,39.929-19.964s30.845,7.886,39.929,19.964c1.198,1.597,2.296,3.194,3.294,4.991
				c4.292,7.287,6.688,15.872,6.688,24.955s-2.396,17.668-6.688,24.955C221.718,139.764,205.646,149.745,187.179,149.745z"/>
			<path style="fill:#E7ECED;" d="M431.743,124.79v59.893h-79.857v-49.112c8.984,8.784,21.362,14.175,34.938,14.175
				c18.766,0,35.137-10.382,43.622-25.754L431.743,124.79z"/>
			<path style="fill:#E7ECED;" d="M230.402,74.879H343.6c-4.292,7.287-6.688,15.872-6.688,24.955s2.396,17.668,6.688,24.955H230.402
				c4.292-7.287,6.688-15.872,6.688-24.955S234.695,82.166,230.402,74.879z"/>
			<path style="fill:#E7ECED;" d="M227.108,9.994v59.893c-9.084-12.078-23.658-19.964-39.929-19.964s-30.845,7.886-39.929,19.964
				V9.994H227.108z"/>
			<rect x="336.912" y="319.443" style="fill:#F4661E;" width="79.857" height="59.893"/>
			<rect x="197.162" y="319.443" style="fill:#FFD248;" width="79.857" height="59.893"/>
			<rect x="57.411" y="319.443" style="fill:#31C0D8;" width="79.857" height="59.893"/>
			<path style="fill:#E7ECED;" d="M476.663,414.273v39.929c0,10.98-8.984,19.964-19.964,19.964H27.465
				c-10.98,0-19.964-8.984-19.964-19.964v-39.929H476.663z"/>
			<polygon style="fill:#AFB6BB;" points="476.663,379.336 476.663,414.273 7.5,414.273 7.5,379.336 57.411,379.336 
				137.268,379.336 197.162,379.336 277.019,379.336 336.912,379.336 416.77,379.336 			"/>
		</g>
		<g>
			<polygon points="379.323,124.79 394.323,124.79 394.323,107.334 411.779,107.334 411.779,92.334 394.323,92.334 394.323,74.879 
				379.323,74.879 379.323,92.334 361.868,92.334 361.868,107.334 379.323,107.334 			"/>
			<polygon points="194.679,74.879 179.679,74.879 179.679,92.334 162.224,92.334 162.224,107.334 179.679,107.334 179.679,124.79 
				194.679,124.79 194.679,107.334 212.135,107.334 212.135,92.334 194.679,92.334 			"/>
			<path d="M139.751,67.47c-6.536,9.479-9.982,20.611-9.982,32.364c0,31.656,25.754,57.411,57.411,57.411
				c18.919,0,36.672-9.462,47.338-24.955h104.95c1.483,2.172,3.124,4.259,4.918,6.253v89.376h14.974v34.14h24.955v27.438h15V262.06
				h24.955v-34.14h14.974V124.79h-0.755c3.765-7.705,5.746-16.266,5.746-24.956c0-31.656-25.755-57.41-57.411-57.41
				c-18.933,0-36.698,9.477-47.341,24.955H234.608V17.495h82.34v-15H57.411v15h82.339V67.47H139.751z M223.915,121.027
				c-7.706,13.286-21.439,21.218-36.735,21.218c-23.385,0-42.411-19.025-42.411-42.411c0-9.336,2.924-18.124,8.476-25.439
				c7.993-10.627,20.679-16.972,33.935-16.972s25.942,6.345,33.929,16.964c1.178,1.57,2.023,2.846,2.739,4.135l0.093,0.163
				c3.697,6.275,5.65,13.588,5.65,21.149c0,7.56-1.954,14.874-5.65,21.149L223.915,121.027z M424.243,177.182h-64.857v-26.856
				c8.316,4.509,17.691,6.919,27.438,6.919c13.956,0,27.174-5.083,37.42-13.912v33.849H424.243z M241.896,82.379h90.21
				c-1.773,5.577-2.695,11.465-2.695,17.455c0,5.995,0.924,11.889,2.691,17.456h-90.207c1.772-5.576,2.694-11.465,2.694-17.456
				C244.59,93.843,243.668,87.955,241.896,82.379z M359.385,212.919v-20.736h64.857v20.736L359.385,212.919L359.385,212.919z
				 M409.269,247.059h-34.91v-19.14h34.91V247.059z M386.823,57.424c23.386,0,42.411,19.025,42.411,42.41
				c0,7.215-1.841,14.295-5.323,20.476l-0.032,0.058c-7.448,13.495-21.647,21.878-37.056,21.878
				c-10.201,0-19.845-3.551-27.438-9.994v-0.674h-0.789c-0.477-0.426-0.948-0.861-1.408-1.311c-2.791-2.79-5.175-5.891-7.127-9.283
				c-3.696-6.276-5.65-13.59-5.65-21.149s1.954-14.872,5.676-21.192C357.794,65.355,371.526,57.424,386.823,57.424z M219.608,52.531
				c-9.468-6.471-20.778-10.107-32.429-10.107c-11.652,0-22.965,3.637-32.429,10.104V17.495h64.857v35.036H219.608z"/>
			<path d="M424.269,371.836v-59.893h-94.857v59.893h-44.893v-59.893h-94.857v59.893h-44.893v-59.893H49.911v59.893H0v82.366
				c0,15.145,12.32,27.465,27.464,27.465h429.233c15.145,0,27.465-12.32,27.465-27.465v-82.366H424.269z M344.412,326.943h64.857
				v44.893h-64.857V326.943z M204.662,326.943h64.857v44.893h-64.857L204.662,326.943L204.662,326.943z M64.911,326.943h64.858
				v44.893H64.911V326.943z M469.163,386.836v19.938H15v-19.938H469.163z M456.698,466.667H27.464
				c-6.873,0-12.464-5.592-12.464-12.465v-32.429h59.867v32.429h15v-32.429h64.857v32.429h15v-32.429h64.857v32.429h15v-32.429
				h64.858v32.429h15v-32.429h64.857v32.429h15v-32.429h59.866v32.429C469.163,461.075,463.571,466.667,456.698,466.667z"/>
			<rect x="272.028" y="436.72" width="19.965" height="15"/>
			<rect x="351.885" y="436.72" width="19.965" height="15"/>
			<rect x="431.743" y="436.72" width="19.965" height="15"/>
			<rect x="192.17" y="436.72" width="19.964" height="15"/>
			<rect x="112.313" y="436.72" width="19.964" height="15"/>
			<rect x="32.456" y="436.72" width="19.964" height="15"/>
		</g>
	</g>
</g>
<g>
</g>
<g>
</g>
<g>
</g>
<g>
</g>
<g>
</g>
<g>
</g>
<g>
</g>
<g>
</g>
<g>
</g>
<g>
</g>
<g>
</g>
<g>
</g>
<g>
</g>
<g>
</g>
<g>
</g>
</svg>
