<?xml version="1.0" encoding="iso-8859-1"?>
<!-- Generator: Adobe Illustrator 19.0.0, SVG Export Plug-In . SVG Version: 6.00 Build 0)  -->
<svg version="1.1" id="Layer_1" xmlns="http://www.w3.org/2000/svg" xmlns:xlink="http://www.w3.org/1999/xlink" x="0px" y="0px"
	 viewBox="0 0 512 512" style="enable-background:new 0 0 512 512;" xml:space="preserve">
<g>
	<rect x="56" y="384.165" style="fill:#1D1D1B;" width="159.996" height="15.664"/>
	<rect x="248.166" y="383.998" style="fill:#1D1D1B;" width="15.664" height="48"/>
	<rect x="296.172" y="383.998" style="fill:#1D1D1B;" width="15.664" height="48"/>
	<rect x="344.168" y="383.998" style="fill:#1D1D1B;" width="15.664" height="48"/>
	<rect x="392.164" y="383.998" style="fill:#1D1D1B;" width="15.664" height="48"/>
	<rect x="440.17" y="383.998" style="fill:#1D1D1B;" width="15.664" height="48"/>
	<path style="fill:#1D1D1B;" d="M503.832,480.168V243.327l-112.674,56.337L375.408,16.168h-78.767l-16.177,258.843l-49.516,24.758
		L215.273,88.168h-78.455l-16.242,186.787L8.167,331.159v149.008H0v15.664h512v-15.664L503.832,480.168L503.832,480.168z
		 M311.358,31.832h49.233l0.907,16.336h-51.161L311.358,31.832z M309.358,63.833h53.01l0.908,16.336h-54.939L309.358,63.833z
		 M307.358,95.832h56.789l11.748,211.464l-32.062,16.031v-80l-47.167,23.583L307.358,95.832z M151.18,103.832h49.547l1.21,16.336
		H149.76L151.18,103.832z M148.397,135.832h54.699l1.21,16.336h-57.33L148.397,135.832z M145.614,167.832h59.853l10.334,139.51
		l-31.969,15.985v-80l-46.817,23.409L145.614,167.832z M56.167,480.168H23.832v-16.336h32.336V480.168z M200.167,480.168H71.832
		v-56.336h128.335V480.168z M488.167,480.168H215.832v-16.336h272.335V480.168z M488.167,448.167H215.832v-40H56.167v40H23.832
		V340.841l144.335-72.168v80l160-80v80l160.001-80V448.167z"/>
</g>
<g>
</g>
<g>
</g>
<g>
</g>
<g>
</g>
<g>
</g>
<g>
</g>
<g>
</g>
<g>
</g>
<g>
</g>
<g>
</g>
<g>
</g>
<g>
</g>
<g>
</g>
<g>
</g>
<g>
</g>
</svg>
