<?xml version="1.0" encoding="utf-8"?>
<!-- Generator: Adobe Illustrator 21.1.0, SVG Export Plug-In . SVG Version: 6.00 Build 0)  -->
<svg version="1.1" id="Layer_1" xmlns="http://www.w3.org/2000/svg" xmlns:xlink="http://www.w3.org/1999/xlink" x="0px" y="0px"
	 viewBox="0 0 512 512" style="enable-background:new 0 0 512 512;" xml:space="preserve">
<g>
	<rect x="246.5" y="392.8" width="23.8" height="47.2"/>
	<path d="M512.7,495.5V250.7l-116.4,58.2L380,16h-81.4l-16.7,267.5L230.8,309L214.6,90.4h-81.1l-16.8,193L0.6,341.5v154l0,0v16.2
		h512.1 M313.9,32.2h50.9l0.9,16.9h-52.9L313.9,32.2z M312.1,60.7l54.3,0.4l14.2,255.7l-33.1,16.6v-82.7l-48.7,24.4L312.1,60.7z
		 M148.3,106.6h51.2l1.3,16.9h-53.9L148.3,106.6z M143.8,137.6l58-0.1l13.3,179.4l-33,16.5v-82.7l-48.4,24.2L143.8,137.6z
		 M50.2,495.5H16.7v-16.9h33.4V495.5z M199,495.5H66.3v-58.2H199V495.5z M496.6,495.5H215.1v-16.9h281.4V495.5z M496.6,462.4H215.1
		v-41.3h-165v41.3H16.7V351.5l149.1-74.6v82.7l165.3-82.7v82.7l165.3-82.7V462.4z M496.6,462.4"/>
	<rect x="294" y="392.8" width="23.8" height="47.2"/>
	<rect x="341.5" y="392.8" width="23.8" height="47.2"/>
	<rect x="388.9" y="392.8" width="23.8" height="47.2"/>
	<rect x="436.4" y="392.8" width="23.8" height="47.2"/>
</g>
</svg>
