<?xml version="1.0" encoding="iso-8859-1"?>
<!-- Generator: Adobe Illustrator 19.0.0, SVG Export Plug-In . SVG Version: 6.00 Build 0)  -->
<svg version="1.1" id="Layer_1" xmlns="http://www.w3.org/2000/svg" xmlns:xlink="http://www.w3.org/1999/xlink" x="0px" y="0px"
	 viewBox="0 0 512 512" style="enable-background:new 0 0 512 512;" xml:space="preserve">
<g>
	<g>
		<g>
			<path d="M482.358,0H105.095c-4.465,0-8.084,3.619-8.084,8.084s3.62,8.084,8.084,8.084h377.263c7.43,0,13.474,6.044,13.474,13.474
				v261.389h-45.81c-4.465,0-8.084,3.619-8.084,8.084c0,4.466,3.62,8.084,8.084,8.084h45.81v78.147
				c0,4.796-2.584,9.271-6.742,11.676c-3.864,2.236-5.186,7.181-2.95,11.046c1.498,2.589,4.213,4.037,7.005,4.037
				c1.373,0,2.766-0.35,4.041-1.088c9.137-5.286,14.815-15.123,14.815-25.671V29.642C512,13.298,498.703,0,482.358,0z"/>
			<path d="M420.379,353.01c0,16.344,13.297,29.642,29.642,29.642s29.642-13.298,29.642-29.642
				c0-16.344-13.297-29.642-29.642-29.642S420.379,336.666,420.379,353.01z M450.021,339.537c7.43,0,13.474,6.044,13.474,13.474
				s-6.044,13.474-13.474,13.474s-13.474-6.044-13.474-13.474S442.591,339.537,450.021,339.537z"/>
			<path d="M177.853,406.905c0-4.466-3.62-8.084-8.084-8.084H29.642c-7.43,0-13.474-6.044-13.474-13.474V307.2h196.716
				c4.465,0,8.084-3.618,8.084-8.084c0-4.466-3.62-8.084-8.084-8.084H16.168V29.642c0-7.43,6.044-13.474,13.474-13.474h43.116
				c4.465,0,8.084-3.619,8.084-8.084S77.223,0,72.758,0H29.642C13.297,0,0,13.298,0,29.642v355.705
				c0,16.344,13.297,29.642,29.642,29.642h140.126C174.233,414.989,177.853,411.371,177.853,406.905z"/>
			<path d="M453.953,400.724l-71.302-21.391v-25.285c5.782-2.746,11.217-6.263,16.143-10.489
				c13.183-11.309,21.896-26.992,24.537-44.158l8.985-58.407c8.768-3.359,15.009-11.862,15.009-21.796
				c0-6.231-2.426-12.089-6.832-16.495c0,0,0,0,0-0.001l-15.744-15.743l-11.127-33.382c-6.435-19.303-23.528-32.768-43.452-34.755
				c-2.979-6.503-9.551-11.032-17.16-11.032h-43.116c-7.609,0-14.18,4.529-17.16,11.032c-19.924,1.987-37.017,15.452-43.452,34.755
				l-11.127,33.382l-15.744,15.743c-4.406,4.406-6.833,10.265-6.833,16.496c0,9.934,6.241,18.438,15.009,21.796l8.985,58.407
				c2.641,17.167,11.356,32.849,24.537,44.158c4.926,4.225,10.361,7.741,16.143,10.489v25.285l-71.302,21.391
				c-21.824,6.547-36.488,26.255-36.488,49.041v43.372c0,10.401,8.463,18.863,18.863,18.863h194.021
				c4.465,0,8.084-3.618,8.084-8.084c0-4.466-3.62-8.084-8.084-8.084H258.695v-24.253c0-4.466-3.62-8.084-8.084-8.084
				s-8.084,3.618-8.084,8.084v24.253h-51.2c-1.485,0-2.695-1.208-2.695-2.695v-43.372c0-15.59,10.033-29.075,24.965-33.555
				l75.926-22.778h83.859l75.927,22.778c14.932,4.48,24.965,17.965,24.965,33.555v43.372c0,1.486-1.209,2.695-2.695,2.695h-51.2
				v-24.253c0-4.466-3.62-8.084-8.084-8.084s-8.084,3.618-8.084,8.084v32.337c0,4.466,3.62,8.084,8.084,8.084h59.284
				c10.401,0,18.863-8.463,18.863-18.863v-43.372C490.442,426.979,475.778,407.271,453.953,400.724z M238.908,226.357
				c-3.948,0-7.159-3.212-7.159-7.16c0-1.912,0.745-3.71,2.096-5.062l17.093-17.092c0.887-0.888,1.557-1.97,1.953-3.16
				l11.731-35.192c4.041-12.123,14.224-20.88,26.411-23.287v34.365c0,4.466,3.62,8.084,8.084,8.084c4.465,0,8.084-3.619,8.084-8.084
				v-43.116c0-1.486,1.209-2.695,2.695-2.695h43.116c1.485,0,2.695,1.208,2.695,2.695v43.116c0,4.466,3.62,8.084,8.084,8.084
				s8.084-3.619,8.084-8.084v-34.364c12.187,2.407,22.368,11.164,26.409,23.287l11.731,35.192c0.397,1.191,1.066,2.273,1.953,3.16
				l17.092,17.091c1.333,1.333,2.098,3.179,2.098,5.063c0,3.949-3.211,7.16-7.159,7.16v-0.001H238.908z M351.422,361.095
				c5.093,0,10.142-0.536,15.064-1.578v17.746h-70.063v-17.746c4.922,1.042,9.969,1.578,15.064,1.578h9.189
				c4.465,0,8.084-3.618,8.084-8.084c0-4.466-3.62-8.084-8.084-8.084h-9.189c-28.132,0-51.655-20.181-55.932-47.986l-8.372-54.414
				h168.542l-8.371,54.414c-4.278,27.804-27.8,47.986-55.932,47.986c-4.465,0-8.084,3.618-8.084,8.084
				C343.336,357.476,346.956,361.095,351.422,361.095z"/>
			<path d="M61.979,323.368c-16.345,0-29.642,13.298-29.642,29.642c0,16.344,13.297,29.642,29.642,29.642h75.453
				c16.345,0,29.642-13.298,29.642-29.642c0-16.344-13.297-29.642-29.642-29.642H61.979z M150.905,353.01
				c0,7.43-6.044,13.474-13.474,13.474H61.979c-7.43,0-13.474-6.044-13.474-13.474s6.044-13.474,13.474-13.474h75.453
				C144.861,339.537,150.905,345.581,150.905,353.01z"/>
			<path d="M153.6,43.116H78.147c-7.43,0-13.474,6.044-13.474,13.474v32.337c0,7.43,6.044,13.474,13.474,13.474h29.642v19.257
				l-35.665,17.833c-4.596,2.296-7.45,6.915-7.45,12.052v4.118c0,5.137,2.854,9.756,7.448,12.051l35.668,17.834V204.8H78.147
				c-7.43,0-13.474,6.044-13.474,13.474v32.337c0,7.43,6.044,13.474,13.474,13.474H153.6c7.43,0,13.474-6.044,13.474-13.474v-8.084
				h24.253c4.465,0,8.084-3.618,8.084-8.084c0-4.466-3.62-8.084-8.084-8.084h-24.253v-8.084c0-7.43-6.044-13.474-13.474-13.474
				h-29.642v-19.257l35.665-17.833c4.596-2.296,7.45-6.915,7.45-12.052v-4.118c0-5.137-2.854-9.756-7.448-12.051l-35.668-17.834
				V102.4H153.6c7.43,0,13.474-6.044,13.474-13.474v-8.084h264.084v78.147c0,4.466,3.62,8.084,8.084,8.084
				c4.465,0,8.084-3.618,8.084-8.084V72.758c0-4.466-3.62-8.084-8.084-8.084H167.074v-8.084
				C167.074,49.16,161.03,43.116,153.6,43.116z M150.905,220.968v26.947H80.842v-26.947H150.905z M150.905,153.208v0.786
				l-35.032,17.516l-35.032-17.516v-0.786l35.032-17.516L150.905,153.208z M150.905,86.232h-35.032H80.842V59.284h70.063V86.232z"/>
			<path d="M183.242,353.01c0,16.344,13.297,29.642,29.642,29.642s29.642-13.298,29.642-29.642
				c0-16.344-13.297-29.642-29.642-29.642S183.242,336.666,183.242,353.01z M226.358,353.01c0,7.43-6.044,13.474-13.474,13.474
				s-13.474-6.044-13.474-13.474s6.044-13.474,13.474-13.474S226.358,345.581,226.358,353.01z"/>
		</g>
	</g>
</g>
<g>
</g>
<g>
</g>
<g>
</g>
<g>
</g>
<g>
</g>
<g>
</g>
<g>
</g>
<g>
</g>
<g>
</g>
<g>
</g>
<g>
</g>
<g>
</g>
<g>
</g>
<g>
</g>
<g>
</g>
</svg>
