<?xml version="1.0" encoding="iso-8859-1"?>
<!-- Generator: Adobe Illustrator 18.0.0, SVG Export Plug-In . SVG Version: 6.00 Build 0)  -->
<!DOCTYPE svg PUBLIC "-//W3C//DTD SVG 1.1//EN" "http://www.w3.org/Graphics/SVG/1.1/DTD/svg11.dtd">
<svg version="1.1" id="Capa_1" xmlns="http://www.w3.org/2000/svg" xmlns:xlink="http://www.w3.org/1999/xlink" x="0px" y="0px"
	 viewBox="0 0 47 47" style="enable-background:new 0 0 47 47;" xml:space="preserve">
<g>
	<path style="fill:#FBD971;" d="M23.5,5c-2.013,0-3.953,0.3-5.796,0.829C18.205,7.437,18.5,9.01,18.5,10c0,2.75-2.25,5-5,5
		c-2.352,0-4.326-1.65-4.852-3.847C4.85,14.953,2.5,20.202,2.5,26c0,11.598,9.402,21,21,21s21-9.402,21-21
		C44.5,14.402,35.098,5,23.5,5z"/>
	<path style="fill:#C03A2B;" d="M12.5,39c0-6.075,4.925-11,11-11s11,4.925,11,11H12.5z"/>
	<path style="fill:#E64C3C;" d="M12.5,39c0-2.761,4.925-5,11-5s11,2.239,11,5"/>
	<path style="fill:#48A0DC;" d="M13.5,15L13.5,15c-2.75,0-5-2.25-5-5v0c0-2.75,2.25-10,5-10h0c2.75,0,5,7.25,5,10v0
		C18.5,12.75,16.25,15,13.5,15z"/>
	<path style="fill:#F29C1F;" d="M36.5,25c-4.411,0-8-3.589-8-8c0-0.552,0.447-1,1-1s1,0.448,1,1c0,3.309,2.691,6,6,6
		c0.553,0,1,0.448,1,1S37.053,25,36.5,25z"/>
	<path style="fill:#F29C1F;" d="M10.5,25c-0.553,0-1-0.448-1-1s0.447-1,1-1c3.309,0,6-2.691,6-6c0-0.552,0.447-1,1-1s1,0.448,1,1
		C18.5,21.411,14.911,25,10.5,25z"/>
</g>
<g>
</g>
<g>
</g>
<g>
</g>
<g>
</g>
<g>
</g>
<g>
</g>
<g>
</g>
<g>
</g>
<g>
</g>
<g>
</g>
<g>
</g>
<g>
</g>
<g>
</g>
<g>
</g>
<g>
</g>
</svg>
