<?xml version="1.0" encoding="utf-8"?>
<!-- Generator: Adobe Illustrator 21.0.2, SVG Export Plug-In . SVG Version: 6.00 Build 0)  -->
<svg version="1.1" xmlns="http://www.w3.org/2000/svg" xmlns:xlink="http://www.w3.org/1999/xlink" x="0px" y="0px"
	 viewBox="0 0 47 47" style="enable-background:new 0 0 47 47;" xml:space="preserve">
<style type="text/css">
	.st0{display:none;}
	.st1{display:inline;}
	.st2{fill:#FBD971;}
	.st3{fill:#C03A2B;}
	.st4{fill:#E64C3C;}
	.st5{fill:#48A0DC;}
	.st6{fill:#F29C1F;}
	.st7{fill:#F0C419;}
</style>
<g id="Capa_1" class="st0">
	<g class="st1">
		<path class="st2" d="M23.5,5c-2,0-4,0.3-5.8,0.8c0.5,1.6,0.8,3.2,0.8,4.2c0,2.8-2.2,5-5,5c-2.4,0-4.3-1.6-4.9-3.8
			C4.8,15,2.5,20.2,2.5,26c0,11.6,9.4,21,21,21s21-9.4,21-21S35.1,5,23.5,5z"/>
		<path class="st3" d="M12.5,39c0-6.1,4.9-11,11-11s11,4.9,11,11H12.5z"/>
		<path class="st4" d="M12.5,39c0-2.8,4.9-5,11-5s11,2.2,11,5"/>
		<path class="st5" d="M13.5,15L13.5,15c-2.8,0-5-2.2-5-5l0,0c0-2.8,2.2-10,5-10l0,0c2.8,0,5,7.2,5,10l0,0
			C18.5,12.7,16.2,15,13.5,15z"/>
		<path class="st6" d="M36.5,25c-4.4,0-8-3.6-8-8c0-0.6,0.4-1,1-1s1,0.4,1,1c0,3.3,2.7,6,6,6c0.6,0,1,0.4,1,1S37.1,25,36.5,25z"/>
		<path class="st6" d="M10.5,25c-0.6,0-1-0.4-1-1s0.4-1,1-1c3.3,0,6-2.7,6-6c0-0.6,0.4-1,1-1s1,0.4,1,1C18.5,21.4,14.9,25,10.5,25z"
			/>
	</g>
</g>
<g id="Layer_2">
	<g>
		<circle class="st2" cx="23.5" cy="26" r="21"/>
		<path class="st7" d="M23.5,41c-6.6,0-12-5.4-12-12c0-0.6,0.4-1,1-1s1,0.4,1,1c0,5.5,4.5,10,10,10s10-4.5,10-10c0-0.6,0.4-1,1-1
			c0.6,0,1,0.4,1,1C35.5,35.6,30.1,41,23.5,41z"/>
		<path class="st6" d="M18.5,22c-0.6,0-1-0.4-1-1c0-1.7-1.3-3-3-3s-3,1.3-3,3c0,0.6-0.4,1-1,1s-1-0.4-1-1c0-2.8,2.2-5,5-5s5,2.2,5,5
			C19.5,21.6,19.1,22,18.5,22z"/>
		<path class="st6" d="M36.5,22c-0.6,0-1-0.4-1-1c0-1.7-1.3-3-3-3s-3,1.3-3,3c0,0.6-0.4,1-1,1s-1-0.4-1-1c0-2.8,2.2-5,5-5s5,2.2,5,5
			C37.5,21.6,37.1,22,36.5,22z"/>
	</g>
</g>
</svg>
