<?xml version="1.0" encoding="iso-8859-1"?>
<!-- Generator: Adobe Illustrator 18.0.0, SVG Export Plug-In . SVG Version: 6.00 Build 0)  -->
<!DOCTYPE svg PUBLIC "-//W3C//DTD SVG 1.1//EN" "http://www.w3.org/Graphics/SVG/1.1/DTD/svg11.dtd">
<svg version="1.1" id="Capa_1" xmlns="http://www.w3.org/2000/svg" xmlns:xlink="http://www.w3.org/1999/xlink" x="0px" y="0px"
	 viewBox="0 0 42 42" style="enable-background:new 0 0 42 42;" xml:space="preserve">
<g>
	<circle style="fill:#FBD971;" cx="21" cy="21" r="21"/>
	<circle style="fill:#FFFFFF;" cx="12" cy="15" r="6"/>
	<circle style="fill:#FFFFFF;" cx="30" cy="15" r="6"/>
	<path style="fill:#F0C419;" d="M13,35c-0.129,0-0.259-0.025-0.385-0.078c-0.51-0.212-0.751-0.798-0.538-1.308
		c3-7.196,11.843-10.647,19.308-7.538c0.51,0.212,0.751,0.798,0.538,1.308c-0.213,0.51-0.797,0.752-1.308,0.538
		c-6.466-2.693-14.109,0.265-16.692,6.462C13.763,34.769,13.392,35,13,35z"/>
	<circle style="fill:#AF8066;" cx="12" cy="15" r="3"/>
	<circle style="fill:#AF8066;" cx="30" cy="15" r="3"/>
</g>
<g>
</g>
<g>
</g>
<g>
</g>
<g>
</g>
<g>
</g>
<g>
</g>
<g>
</g>
<g>
</g>
<g>
</g>
<g>
</g>
<g>
</g>
<g>
</g>
<g>
</g>
<g>
</g>
<g>
</g>
</svg>
