<?xml version="1.0" encoding="iso-8859-1"?>
<!-- Generator: Adobe Illustrator 18.0.0, SVG Export Plug-In . SVG Version: 6.00 Build 0)  -->
<!DOCTYPE svg PUBLIC "-//W3C//DTD SVG 1.1//EN" "http://www.w3.org/Graphics/SVG/1.1/DTD/svg11.dtd">
<svg version="1.1" id="Capa_1" xmlns="http://www.w3.org/2000/svg" xmlns:xlink="http://www.w3.org/1999/xlink" x="0px" y="0px"
	 viewBox="0 0 42 42" style="enable-background:new 0 0 42 42;" xml:space="preserve">
<g>
	<circle style="fill:#FBD971;" cx="21" cy="21" r="21"/>
	<path style="fill:#F29C1F;" d="M32,21c-0.226,0-0.453-0.076-0.64-0.232l-6-5C25.132,15.578,25,15.297,25,15s0.132-0.578,0.36-0.768
		l6-5c0.424-0.354,1.054-0.297,1.408,0.128c0.354,0.424,0.296,1.055-0.128,1.408L27.562,15l5.078,4.232
		c0.424,0.354,0.481,0.984,0.128,1.408C32.57,20.877,32.286,21,32,21z"/>
	<path style="fill:#F29C1F;" d="M10,21c-0.287,0-0.571-0.123-0.769-0.36c-0.354-0.424-0.296-1.055,0.128-1.408L14.438,15
		L9.36,10.768C8.936,10.415,8.878,9.784,9.232,9.36c0.354-0.424,0.983-0.481,1.408-0.128l6,5C16.868,14.422,17,14.703,17,15
		s-0.132,0.578-0.36,0.768l-6,5C10.453,20.924,10.226,21,10,21z"/>
	<path style="fill:#F0C419;" d="M23,34.562l-5-6l-5,6L7.232,27.64c-0.354-0.424-0.296-1.055,0.128-1.408
		c0.424-0.354,1.054-0.296,1.408,0.128L13,31.438l5-6l5,6l5-6l5.768,6.922c0.354,0.424,0.296,1.055-0.128,1.408
		c-0.425,0.353-1.055,0.296-1.408-0.128L28,28.562L23,34.562z"/>
</g>
<g>
</g>
<g>
</g>
<g>
</g>
<g>
</g>
<g>
</g>
<g>
</g>
<g>
</g>
<g>
</g>
<g>
</g>
<g>
</g>
<g>
</g>
<g>
</g>
<g>
</g>
<g>
</g>
<g>
</g>
</svg>
