<?xml version="1.0" encoding="utf-8"?>
<!-- Generator: Adobe Illustrator 21.1.0, SVG Export Plug-In . SVG Version: 6.00 Build 0)  -->
<svg version="1.1" id="Layer_1" xmlns="http://www.w3.org/2000/svg" xmlns:xlink="http://www.w3.org/1999/xlink" x="0px" y="0px"
	 viewBox="0 0 250 250" style="enable-background:new 0 0 250 250;" xml:space="preserve">
<style type="text/css">
	.st0{clip-path:url(#SVGID_2_);fill:#2C2F33;}
	.st1{fill:#3C92CA;}
</style>
<g>
	<g>
		<defs>
			<rect id="SVGID_1_" x="55" y="38.3" width="141" height="184.5"/>
		</defs>
		<clipPath id="SVGID_2_">
			<use xlink:href="#SVGID_1_"  style="overflow:visible;"/>
		</clipPath>
		<path class="st0" d="M107,131.4v-26.5c0-1.2-0.6-2.4-1.6-3.1c-2.4-1.6-3.9-4.3-3.9-7.2V67.1c0-11.6,9.4-21,21-21h5.9
			c11.6,0,21,9.4,21,21v27.5c0,2.9-1.5,5.6-3.9,7.2c-1.1,0.7-1.6,1.8-1.6,3.1v26.5c0,1.9,1.1,3.6,2.8,4.4
			c3.5,1.7,21.6,10.9,38.3,24.6c2.2,1.8,3.5,4.5,3.5,7.4v18.8c0,2.1,1.6,3.7,3.7,3.7c2.1,0,3.7-1.7,3.7-3.7v-18.8
			c0-5.1-2.2-9.9-6.2-13.2c-15.7-12.9-32.7-22-38.4-24.9v-23.1c3.5-3,5.5-7.4,5.5-12.1V67.1c0-15.7-12.7-28.4-28.4-28.4h-5.9
			c-15.7,0-28.4,12.7-28.4,28.4v27.5c0,4.7,2,9.1,5.5,12.1v23.1c-5.7,2.9-22.7,11.9-38.4,24.8c-3.9,3.2-6.2,8-6.2,13.2v18.8
			c0,2.1,1.6,3.7,3.7,3.7c2.1,0,3.7-1.6,3.7-3.7v-18.8c0-2.9,1.3-5.6,3.5-7.4c16.7-13.8,34.9-22.9,38.3-24.6
			C105.9,135,107,133.3,107,131.4L107,131.4z M107,131.4"/>
	</g>
	<path class="st1" d="M134.6,135.3c-2.1,0-3.7,1.6-3.7,3.7c0,1.6-0.7,3-1.7,3.9c-0.2,0.2-0.4,0.3-0.6,0.5c-0.9,0.6-1.9,0.9-3,0.9
		c-3,0-5.4-2.4-5.4-5.4c0-2.1-1.6-3.7-3.7-3.7c-2.1,0-3.7,1.6-3.7,3.7c0,3,1,5.8,2.8,8l-2.7,63.6c0,1.1,0.4,2.2,1.2,2.9l8.7,7.9
		c0.7,0.6,1.6,1,2.5,1c0.9,0,1.8-0.3,2.5-1l8.8-8c0.8-0.8,1.3-1.8,1.2-2.9l-2.8-62.9c2.1-2.3,3.4-5.3,3.4-8.6
		C138.3,136.9,136.6,135.3,134.6,135.3L134.6,135.3z M125.2,213.7l-4.9-4.5l2.5-57.7c0.9,0.2,1.8,0.3,2.7,0.3c0.8,0,1.5-0.1,2.2-0.2
		l2.6,57.5L125.2,213.7z M125.2,213.7"/>
</g>
</svg>
