<?xml version="1.0" encoding="iso-8859-1"?>
<!-- Generator: Adobe Illustrator 19.0.0, SVG Export Plug-In . SVG Version: 6.00 Build 0)  -->
<svg version="1.1" id="Layer_1" xmlns="http://www.w3.org/2000/svg" xmlns:xlink="http://www.w3.org/1999/xlink" x="0px" y="0px"
	 viewBox="0 0 512.001 512.001" style="enable-background:new 0 0 512.001 512.001;" xml:space="preserve">
<polygon style="fill:#EF4C35;" points="278.665,418.858 289.429,390.192 256.407,365.893 223.276,390.276 235.25,418.858 "/>
<polygon style="fill:#DD3E2B;" points="235.25,418.858 235.881,420.366 221.1,512 292.932,512 278.134,420.278 278.665,418.858 "/>
<polygon style="fill:#D2D2D7;" points="230.312,512 245.273,419.253 230.816,384.73 184.43,340.627 193.511,406.757 222.988,512 "/>
<polygon style="fill:#E4E4EA;" points="291.181,512 320.998,405.542 330.084,339.397 281.819,384.598 268.774,419.342 283.721,512 
	"/>
<path style="fill:#F5F5F7;" d="M291.867,403.172c9.546,7.025,15.319,0.771,17.475-2.483l30.413-62.511l-39.251-25.908l-9.265,16.683
	l-34.522,35.836l-33.594-32.724l-6.511-22.629l-43.549,28.74l29.696,61.038c0.821,1.624,6.844,12.407,18.329,3.966l35.319-25.993
	l33.662,24.771C290.603,402.283,291.193,402.675,291.867,403.172z"/>
<path style="fill:#694B4B;" d="M261.415,0h-9.211c-62.925,0-114.114,51.196-114.114,114.118v15.22v14.245v24.068
	c0,0,25.98-2.577,29.176-15.176l-0.017-0.013c1.097-1.193,2.014-2.552,2.661-4.072c14.737-0.444,83.578-0.98,122.89-48.459
	c4.692,13.725,20.562,39.713,51.1,47.897c0.63,1.656,1.565,3.15,2.709,4.444l-0.253,0.204c3.194,12.599,29.176,15.176,29.176,15.176
	v-24.167v-14.147v-15.22C375.532,51.196,324.338,0,261.415,0z M347.452,144.28l1.099-0.796h0.156l-1.79,1.326L347.452,144.28z
	 M346.893,144.623l0.123-0.388l0.381-0.751h0.155l-0.453,0.943L346.893,144.623z M343.866,146.963l-0.042-0.06l2.814-2.036
	l-0.664,0.642l-2.057,1.521L343.866,146.963z M346.189,146.302l-0.881,1.823c-0.007-0.002-0.009-0.002-0.016-0.006l-0.123-0.056
	c-0.02-0.009-0.043-0.023-0.06-0.032l1.436-2.855l0.038-0.036L346.189,146.302z"/>
<path style="fill:#563B3B;" d="M158.204,143.582v-14.245v-15.22c0-61.097,48.263-111.122,108.663-113.978
	c-1.81-0.087-3.626-0.14-5.452-0.14h-9.211c-62.925,0-114.114,51.196-114.114,114.118v15.22v14.245v24.068
	c0,0,11.48-1.145,20.115-5.607V143.582z"/>
<path style="fill:#FBCB99;" d="M361.826,151.107c-4.367-1.361-9.111-0.566-12.793,2.14c-3.679,2.708-5.852,7.008-5.852,11.577
	v40.943c0,4.567,2.172,8.864,5.852,11.568c2.5,1.841,5.489,2.798,8.517,2.798c1.427,0,2.874-0.211,4.272-0.652
	c2.755-0.856,5.459-2.095,8.041-3.679c1.518-0.93,2.851-2.141,3.93-3.556c1.584-0.818,3.003-1.922,4.186-3.257
	c5.805-6.565,9.003-14.979,9.003-23.699C386.982,169.534,376.874,155.796,361.826,151.107z"/>
<path style="fill:#EDBA89;" d="M165.003,153.245c-3.681-2.706-8.429-3.5-12.791-2.143c-15.046,4.694-25.161,18.432-25.161,34.187
	c0,15.762,10.114,29.499,25.161,34.191c1.399,0.44,2.842,0.652,4.277,0.652c3.024,0,6.013-0.957,8.514-2.796
	c3.684-2.706,5.855-7.003,5.855-11.571v-40.948C170.858,160.253,168.687,155.953,165.003,153.245z"/>
<path style="fill:#FBCB99;" d="M296.246,277.139c-2.825-2.703-6.615-4.121-10.55-3.976l-0.488,0.023
	c-0.877,0.03-1.751,0.144-2.61,0.331c-5.549,1.235-11.204,1.862-16.795,1.862h-17.566c-5.761,0-11.578-0.663-17.297-1.973
	c-4.268-0.983-8.742,0.037-12.162,2.764c-3.423,2.726-5.417,6.867-5.417,11.238v41.794l-0.008,0.141
	c-0.227,4.146,1.346,8.188,4.319,11.088l28.869,28.12c2.684,2.614,6.283,4.071,10.022,4.071c0.078,0,0.158,0,0.233,0
	c3.824-0.063,7.468-1.645,10.118-4.402l29.742-30.872c2.581-2.677,4.021-6.25,4.021-9.965v-39.864
	C300.676,283.599,299.077,279.85,296.246,277.139z"/>
<path style="fill:#EDBA89;" d="M259.476,364.235l-28.872-28.117c-2.973-2.898-4.548-6.938-4.321-11.087l0.013-0.142v-41.794
	c0-3.676,1.423-7.176,3.906-9.818c-4.041-0.706-8.2,0.327-11.422,2.892c-3.423,2.726-5.417,6.867-5.417,11.238v41.794l-0.008,0.141
	c-0.227,4.146,1.346,8.188,4.319,11.088l28.869,28.12c2.684,2.614,6.283,4.071,10.022,4.071c0.078,0,0.158,0,0.233,0
	c3.824-0.063,7.468-1.645,10.117-4.402l0.128-0.134C264.208,367.596,261.562,366.271,259.476,364.235z"/>
<path style="fill:#FBCB99;" d="M341.015,139.38c-1.738-0.648-3.378-1.402-4.979-2.205c-24.143-11.265-34.164-25.917-38.198-34.658
	c-0.239-0.33-0.48-0.694-0.725-1.151c-2.885-5.305-7.382-1.947-7.382-1.947l-0.02-0.011c-22.546,17.293-47.173,27.406-67.647,33.29
	c-7.97,2.355-15.605,4.058-22.51,5.296c-13.723,2.52-22.546,2.85-22.546,2.85c-7.517,0.541-13.339,6.799-13.339,14.334v58.625
	c0,46.631,37.94,84.566,84.567,84.566h17.566c46.626,0,84.563-37.934,84.563-84.566v-60.961
	C350.366,146.84,346.634,141.476,341.015,139.38z"/>
<path style="fill:#EDBA89;" d="M180.912,213.803v-58.625c0-7.535,5.82-13.792,13.336-14.334c0,0,8.82-0.33,22.546-2.85
	c6.908-1.238,14.543-2.941,22.515-5.296c18.116-5.211,39.491-13.741,59.802-27.62c-0.478-0.898-0.903-1.754-1.274-2.562
	c-0.239-0.33-0.48-0.694-0.725-1.151c-2.885-5.305-7.382-1.947-7.382-1.947l-0.02-0.011c-22.546,17.293-47.173,27.406-67.647,33.29
	c-7.97,2.355-15.605,4.058-22.51,5.296c-13.723,2.52-22.546,2.85-22.546,2.85c-7.517,0.541-13.339,6.799-13.339,14.334v58.625
	c0,46.631,37.94,84.566,84.567,84.566h17.236C218.848,298.369,180.912,260.434,180.912,213.803z"/>
<g>
	<path style="fill:#324A5E;" d="M92.384,512h140.049l-50.186-179.167l-51.759,21.569l-0.07,0.026
		c-21.022,7.379-56.597,34.147-56.597,87.653v51.377C74.099,499,76.444,512,92.384,512z"/>
	<path style="fill:#324A5E;" d="M438.18,494.081v-51.997c0-54.164-37-81.002-56.674-87.683l-49.812-20.756l-49.961,178.356h137.922
		C435.026,512,437.756,499.909,438.18,494.081z"/>
</g>
<g>
	<path style="fill:#283D4C;" d="M182.247,332.834l-51.759,21.569l-0.07,0.026c-21.022,7.379-56.597,34.147-56.597,87.653v51.377
		c0.278,5.54,2.624,18.54,18.563,18.54h2.323v-69.917c0-53.507,35.574-80.275,56.597-87.653l0.069-0.026l33.057-13.776
		L182.247,332.834z"/>
	<path style="fill:#283D4C;" d="M379.854,512v-71.43c0-4.486-3.636-8.121-8.121-8.121c-4.486,0-8.121,3.635-8.121,8.121V512H379.854
		z"/>
	<path style="fill:#283D4C;" d="M150.423,512v-71.43c0-4.486-3.635-8.121-8.121-8.121c-4.486,0-8.121,3.635-8.121,8.121V512H150.423
		z"/>
</g>
<path style="fill:#EDBA89;" d="M265.261,220.686c2.985,0,5.414,2.429,5.414,5.414s-2.429,5.414-5.414,5.414h-13.834
	c-2.985,0-5.414-2.429-5.414-5.414v-26.39c0-2.985,2.429-5.414,5.414-5.414c2.985,0,5.414,2.429,5.414,5.414v20.976H265.261z"/>
<g>
</g>
<g>
</g>
<g>
</g>
<g>
</g>
<g>
</g>
<g>
</g>
<g>
</g>
<g>
</g>
<g>
</g>
<g>
</g>
<g>
</g>
<g>
</g>
<g>
</g>
<g>
</g>
<g>
</g>
</svg>
