<?xml version="1.0" encoding="iso-8859-1"?>
<!-- Generator: Adobe Illustrator 18.0.0, SVG Export Plug-In . SVG Version: 6.00 Build 0)  -->
<!DOCTYPE svg PUBLIC "-//W3C//DTD SVG 1.1//EN" "http://www.w3.org/Graphics/SVG/1.1/DTD/svg11.dtd">
<svg version="1.1" id="Capa_1" xmlns="http://www.w3.org/2000/svg" xmlns:xlink="http://www.w3.org/1999/xlink" x="0px" y="0px"
	 viewBox="0 0 60 60" style="enable-background:new 0 0 60 60;" xml:space="preserve">
<g>
	<path style="fill:#D1D4D1;" d="M5,49.5c-0.552,0-1-0.447-1-1v-17c0-0.553,0.448-1,1-1s1,0.447,1,1v17C6,49.053,5.552,49.5,5,49.5z"
		/>
	<path style="fill:#D1D4D1;" d="M55,49.5c-0.552,0-1-0.447-1-1v-17c0-0.553,0.448-1,1-1s1,0.447,1,1v17
		C56,49.053,55.552,49.5,55,49.5z"/>
	<path style="fill:#D1D4D1;" d="M9,41.5c-0.552,0-1-0.447-1-1v-9c0-0.553,0.448-1,1-1s1,0.447,1,1v9C10,41.053,9.552,41.5,9,41.5z"
		/>
	<path style="fill:#D1D4D1;" d="M12,41.5c-0.552,0-1-0.447-1-1v-9c0-0.553,0.448-1,1-1s1,0.447,1,1v9C13,41.053,12.552,41.5,12,41.5
		z"/>
	<path style="fill:#D1D4D1;" d="M17,41.5c-0.552,0-1-0.447-1-1v-9c0-0.553,0.448-1,1-1s1,0.447,1,1v9C18,41.053,17.552,41.5,17,41.5
		z"/>
	<path style="fill:#D1D4D1;" d="M20,41.5c-0.552,0-1-0.447-1-1v-9c0-0.553,0.448-1,1-1s1,0.447,1,1v9C21,41.053,20.552,41.5,20,41.5
		z"/>
	<path style="fill:#D1D4D1;" d="M23,41.5c-0.552,0-1-0.447-1-1v-9c0-0.553,0.448-1,1-1s1,0.447,1,1v9C24,41.053,23.552,41.5,23,41.5
		z"/>
	<path style="fill:#D1D4D1;" d="M29,41.5c-0.552,0-1-0.447-1-1v-9c0-0.553,0.448-1,1-1s1,0.447,1,1v9C30,41.053,29.552,41.5,29,41.5
		z"/>
	<path style="fill:#D1D4D1;" d="M34,41.5c-0.552,0-1-0.447-1-1v-9c0-0.553,0.448-1,1-1s1,0.447,1,1v9C35,41.053,34.552,41.5,34,41.5
		z"/>
	<path style="fill:#D1D4D1;" d="M37,41.5c-0.552,0-1-0.447-1-1v-9c0-0.553,0.448-1,1-1s1,0.447,1,1v9C38,41.053,37.552,41.5,37,41.5
		z"/>
	<path style="fill:#D1D4D1;" d="M42,41.5c-0.552,0-1-0.447-1-1v-9c0-0.553,0.448-1,1-1s1,0.447,1,1v9C43,41.053,42.552,41.5,42,41.5
		z"/>
	<path style="fill:#D1D4D1;" d="M45,41.5c-0.552,0-1-0.447-1-1v-9c0-0.553,0.448-1,1-1s1,0.447,1,1v9C46,41.053,45.552,41.5,45,41.5
		z"/>
	<path style="fill:#D1D4D1;" d="M51,41.5c-0.552,0-1-0.447-1-1v-9c0-0.553,0.448-1,1-1s1,0.447,1,1v9C52,41.053,51.552,41.5,51,41.5
		z"/>
	<path style="fill:#D1D4D1;" d="M5,26.5c-0.552,0-1-0.447-1-1v-14c0-0.553,0.448-1,1-1s1,0.447,1,1v14C6,26.053,5.552,26.5,5,26.5z"
		/>
	<path style="fill:#D1D4D1;" d="M55,26.5c-0.552,0-1-0.447-1-1v-14c0-0.553,0.448-1,1-1s1,0.447,1,1v14
		C56,26.053,55.552,26.5,55,26.5z"/>
	<path style="fill:#D1D4D1;" d="M9,26.5c-0.552,0-1-0.447-1-1v-14c0-0.553,0.448-1,1-1s1,0.447,1,1v14C10,26.053,9.552,26.5,9,26.5z
		"/>
	<path style="fill:#D1D4D1;" d="M12,26.5c-0.552,0-1-0.447-1-1v-14c0-0.553,0.448-1,1-1s1,0.447,1,1v14
		C13,26.053,12.552,26.5,12,26.5z"/>
	<path style="fill:#D1D4D1;" d="M17,26.5c-0.552,0-1-0.447-1-1v-14c0-0.553,0.448-1,1-1s1,0.447,1,1v14
		C18,26.053,17.552,26.5,17,26.5z"/>
	<path style="fill:#D1D4D1;" d="M20,26.5c-0.552,0-1-0.447-1-1v-14c0-0.553,0.448-1,1-1s1,0.447,1,1v14
		C21,26.053,20.552,26.5,20,26.5z"/>
	<path style="fill:#D1D4D1;" d="M23,26.5c-0.552,0-1-0.447-1-1v-14c0-0.553,0.448-1,1-1s1,0.447,1,1v14
		C24,26.053,23.552,26.5,23,26.5z"/>
	<path style="fill:#D1D4D1;" d="M29,26.5c-0.552,0-1-0.447-1-1v-14c0-0.553,0.448-1,1-1s1,0.447,1,1v14
		C30,26.053,29.552,26.5,29,26.5z"/>
	<path style="fill:#D1D4D1;" d="M34,26.5c-0.552,0-1-0.447-1-1v-14c0-0.553,0.448-1,1-1s1,0.447,1,1v14
		C35,26.053,34.552,26.5,34,26.5z"/>
	<path style="fill:#D1D4D1;" d="M37,26.5c-0.552,0-1-0.447-1-1v-14c0-0.553,0.448-1,1-1s1,0.447,1,1v14
		C38,26.053,37.552,26.5,37,26.5z"/>
	<path style="fill:#D1D4D1;" d="M42,26.5c-0.552,0-1-0.447-1-1v-14c0-0.553,0.448-1,1-1s1,0.447,1,1v14
		C43,26.053,42.552,26.5,42,26.5z"/>
	<path style="fill:#D1D4D1;" d="M45,26.5c-0.552,0-1-0.447-1-1v-14c0-0.553,0.448-1,1-1s1,0.447,1,1v14
		C46,26.053,45.552,26.5,45,26.5z"/>
	<path style="fill:#D1D4D1;" d="M51,26.5c-0.552,0-1-0.447-1-1v-14c0-0.553,0.448-1,1-1s1,0.447,1,1v14
		C52,26.053,51.552,26.5,51,26.5z"/>
	<path style="fill:#D1D4D1;" d="M9,47.5c-0.552,0-1-0.447-1-1v-1c0-0.553,0.448-1,1-1s1,0.447,1,1v1C10,47.053,9.552,47.5,9,47.5z"
		/>
	<path style="fill:#D1D4D1;" d="M12,47.5c-0.552,0-1-0.447-1-1v-1c0-0.553,0.448-1,1-1s1,0.447,1,1v1C13,47.053,12.552,47.5,12,47.5
		z"/>
	<path style="fill:#D1D4D1;" d="M15,47.5c-0.552,0-1-0.447-1-1v-1c0-0.553,0.448-1,1-1s1,0.447,1,1v1C16,47.053,15.552,47.5,15,47.5
		z"/>
	<path style="fill:#D1D4D1;" d="M18,47.5c-0.552,0-1-0.447-1-1v-1c0-0.553,0.448-1,1-1s1,0.447,1,1v1C19,47.053,18.552,47.5,18,47.5
		z"/>
	<path style="fill:#D1D4D1;" d="M21,47.5c-0.552,0-1-0.447-1-1v-1c0-0.553,0.448-1,1-1s1,0.447,1,1v1C22,47.053,21.552,47.5,21,47.5
		z"/>
	<path style="fill:#D1D4D1;" d="M24,47.5c-0.552,0-1-0.447-1-1v-1c0-0.553,0.448-1,1-1s1,0.447,1,1v1C25,47.053,24.552,47.5,24,47.5
		z"/>
	<path style="fill:#D1D4D1;" d="M27,47.5c-0.552,0-1-0.447-1-1v-1c0-0.553,0.448-1,1-1s1,0.447,1,1v1C28,47.053,27.552,47.5,27,47.5
		z"/>
	<path style="fill:#D1D4D1;" d="M30,47.5c-0.552,0-1-0.447-1-1v-1c0-0.553,0.448-1,1-1s1,0.447,1,1v1C31,47.053,30.552,47.5,30,47.5
		z"/>
	<path style="fill:#D1D4D1;" d="M33,47.5c-0.552,0-1-0.447-1-1v-1c0-0.553,0.448-1,1-1s1,0.447,1,1v1C34,47.053,33.552,47.5,33,47.5
		z"/>
	<path style="fill:#D1D4D1;" d="M36,47.5c-0.552,0-1-0.447-1-1v-1c0-0.553,0.448-1,1-1s1,0.447,1,1v1C37,47.053,36.552,47.5,36,47.5
		z"/>
	<path style="fill:#D1D4D1;" d="M39,47.5c-0.552,0-1-0.447-1-1v-1c0-0.553,0.448-1,1-1s1,0.447,1,1v1C40,47.053,39.552,47.5,39,47.5
		z"/>
	<path style="fill:#D1D4D1;" d="M42,47.5c-0.552,0-1-0.447-1-1v-1c0-0.553,0.448-1,1-1s1,0.447,1,1v1C43,47.053,42.552,47.5,42,47.5
		z"/>
	<path style="fill:#D1D4D1;" d="M45,47.5c-0.552,0-1-0.447-1-1v-1c0-0.553,0.448-1,1-1s1,0.447,1,1v1C46,47.053,45.552,47.5,45,47.5
		z"/>
	<path style="fill:#D1D4D1;" d="M48,47.5c-0.552,0-1-0.447-1-1v-1c0-0.553,0.448-1,1-1s1,0.447,1,1v1C49,47.053,48.552,47.5,48,47.5
		z"/>
	<path style="fill:#D1D4D1;" d="M51,47.5c-0.552,0-1-0.447-1-1v-1c0-0.553,0.448-1,1-1s1,0.447,1,1v1C52,47.053,51.552,47.5,51,47.5
		z"/>
	<g>
		<path style="fill:#8697CB;" d="M8,55.5H0v-7c0-0.553,0.448-1,1-1s1,0.447,1,1v5h6c0.552,0,1,0.447,1,1S8.552,55.5,8,55.5z"/>
		<path style="fill:#8697CB;" d="M60,55.5h-7c-0.552,0-1-0.447-1-1s0.448-1,1-1h5v-5c0-0.553,0.448-1,1-1s1,0.447,1,1V55.5z"/>
	</g>
	<g>
		<path style="fill:#8697CB;" d="M59,12.5c-0.552,0-1-0.447-1-1v-5h-6c-0.552,0-1-0.447-1-1s0.448-1,1-1h8v7
			C60,12.053,59.552,12.5,59,12.5z"/>
		<path style="fill:#8697CB;" d="M1,12.5c-0.552,0-1-0.447-1-1v-7h7c0.552,0,1,0.447,1,1s-0.448,1-1,1H2v5
			C2,12.053,1.552,12.5,1,12.5z"/>
	</g>
	<path style="fill:#D75A4A;" d="M59,29.5H1c-0.552,0-1-0.447-1-1s0.448-1,1-1h58c0.552,0,1,0.447,1,1S59.552,29.5,59,29.5z"/>
</g>
<g>
</g>
<g>
</g>
<g>
</g>
<g>
</g>
<g>
</g>
<g>
</g>
<g>
</g>
<g>
</g>
<g>
</g>
<g>
</g>
<g>
</g>
<g>
</g>
<g>
</g>
<g>
</g>
<g>
</g>
</svg>
