<svg xmlns="http://www.w3.org/2000/svg" viewBox="0 0 152 152"><title>any</title><g id="bg"><rect width="152" height="152" rx="12" ry="12" style="fill:#fff"/></g><g id="Layer_10" data-name="Layer 10"><rect x="32.25" y="103.79" width="35" height="3.4" style="fill:#1d1d1b"/><rect x="74.29" y="103.75" width="3.43" height="10.41" style="fill:#1d1d1b"/><rect x="84.79" y="103.75" width="3.43" height="10.41" style="fill:#1d1d1b"/><rect x="95.29" y="103.75" width="3.43" height="10.41" style="fill:#1d1d1b"/><rect x="105.79" y="103.75" width="3.43" height="10.41" style="fill:#1d1d1b"/><rect x="116.29" y="103.75" width="3.43" height="10.41" style="fill:#1d1d1b"/><path d="M130.21,124.6V73.25L105.57,85.47,102.12,24H84.89L81.35,80.12,70.52,85.49,67.09,39.61H49.93l-3.55,40.5L21.79,92.3V124.6H20V128H132v-3.4ZM88.11,27.4H98.88l.2,3.54H87.89Zm-.44,6.94h11.6l.2,3.54h-12Zm-.44,6.94H99.66l2.57,45.85-7,3.48V73.25L84.9,78.37ZM53.07,43H63.91l.26,3.54H52.76Zm-.61,6.94h12l.26,3.54H52.15Zm-.61,6.94H64.95l2.26,30.25-7,3.47V73.25L50,78.33ZM32.29,124.6H25.21v-3.54h7.07Zm31.5,0H35.71V112.39H63.79Zm63,0H67.21v-3.54h59.57Zm0-6.94H67.21V109H32.29v8.67H25.21V94.4L56.79,78.75V96.09l35-17.35V96.09l35-17.35Zm0,0" style="fill:#1d1d1b"/></g></svg>