<svg id="Layer_1" data-name="Layer 1" xmlns="http://www.w3.org/2000/svg" viewBox="0 0 152 152"><title>Artboard 1</title><g id="bg"><rect width="152" height="152" rx="12" ry="12" style="fill:#fff"/></g><rect x="73.72" y="99.62" width="4.3" height="8.53"/><path d="M121.83,118.18V74l-21,10.52L97.85,31.54H83.14l-3,48.33-9.25,4.62L68,45H53.3l-3,34.88-21,10.49v27.82h0v2.92h92.53M85.89,34.47h9.19l.17,3.05H85.7Zm-.32,5.16,9.81.07,2.57,46.2-6,3V74l-8.81,4.4ZM56,47.91h9.25l.23,3H55.72Zm-.82,5.6,10.49,0,2.4,32.42-6,3V74l-8.74,4.37ZM38.25,118.18h-6v-3h6Zm26.89,0h-24V107.66h24Zm53.77,0H68.06v-3h50.85Zm0-6H68.06v-7.47H38.25v7.47h-6v-20L59.16,78.69V93.62L89,78.69V93.62l29.87-14.94Zm0,0"/><rect x="82.3" y="99.62" width="4.3" height="8.53"/><rect x="90.88" y="99.62" width="4.3" height="8.53"/><rect x="99.46" y="99.62" width="4.3" height="8.53"/><rect x="108.04" y="99.62" width="4.3" height="8.53"/></svg>